<svg width="295.52509765625px" height="122px" xmlns="http://www.w3.org/2000/svg" viewBox="102.237451171875 14 295.52509765625 122" style="background: rgba(0, 0, 0, 0);" preserveAspectRatio="xMidYMid"><defs><filter id="editing-vr"><feFlood flood-color="#f00" flood-opacity="0.7" result="c1"></feFlood><feFlood flood-color="#00f" flood-opacity="0.7" result="c3"></feFlood><feComposite operator="in" in="c1" in2="SourceAlpha" result="text-c1"></feComposite><feComposite operator="in" in="c3" in2="SourceAlpha" result="text-c3"></feComposite><feOffset in="text-c1" dx="5" dy="-1" result="text1"></feOffset><feOffset in="text-c3" dx="-5" dy="1" result="text3"></feOffset><feBlend in="SourceGraphic" in2="text1" mode="multiply" result="text4"></feBlend><feBlend in="text4" in2="text3" mode="multiply"></feBlend></filter></defs><g filter="url(#editing-vr)"><g transform="translate(150.6501294374466, 97.43000030517578)"><path d="M6.53 0L-0.83 0L10.75-42.24L24.13-42.24L27.07-18.11L38.98-42.24L50.18-42.24L51.33-10.62L51.33-10.62Q51.58-4.35 54.66-2.43L54.66-2.43L54.66-2.43Q53.95-1.15 51.90 0.06L51.90 0.06L51.90 0.06Q49.86 1.28 47.14 1.28L47.14 1.28L47.14 1.28Q44.42 1.28 42.82 0.51L42.82 0.51L42.82 0.51Q41.22-0.26 40.32-1.54L40.32-1.54L40.32-1.54Q38.72-3.84 38.72-8.26L38.72-8.26L38.72-28.03L26.11 0L18.18 0L13.70-28.74L6.53 0ZM58.37-15.62L58.37-15.62L58.37-15.62Q58.37-27.71 64.64-35.33L64.64-35.33L64.64-35.33Q71.30-43.58 82.88-43.58L82.88-43.58L82.88-43.58Q91.26-43.58 95.49-39.52L95.49-39.52L95.49-39.52Q99.71-35.46 99.71-26.88L99.71-26.88L99.71-26.88Q99.71-13.82 93.06-6.21L93.06-6.21L93.06-6.21Q86.46 1.28 75.39 1.28L75.39 1.28L75.39 1.28Q66.75 1.28 62.56-3.04L62.56-3.04L62.56-3.04Q58.37-7.36 58.37-15.62ZM75.20-28.86L75.20-28.86L75.20-28.86Q72.32-17.34 72.32-8.26L72.32-8.26L72.32-8.26Q72.32-6.08 73.06-4.67L73.06-4.67L73.06-4.67Q73.79-3.26 75.74-3.26L75.74-3.26L75.74-3.26Q77.70-3.26 78.91-4.19L78.91-4.19L78.91-4.19Q80.13-5.12 81.09-7.23L81.09-7.23L81.09-7.23Q82.62-10.69 84.06-18.02L84.06-18.02L84.06-18.02Q85.50-25.34 85.63-28.38L85.63-28.38L85.63-28.38Q85.76-31.42 85.76-33.73L85.76-33.73L85.76-33.73Q85.76-36.03 85.06-37.50L85.06-37.50L85.06-37.50Q84.35-38.98 82.46-38.98L82.46-38.98L82.46-38.98Q80.58-38.98 79.30-37.82L79.30-37.82L79.30-37.82Q76.93-35.65 75.20-28.86ZM104.45-39.68L104.45-39.68L104.45-39.68Q106.30-43.52 111.46-43.52L111.46-43.52L111.46-43.52Q116.61-43.52 119.01-40.54L119.01-40.54L119.01-40.54Q121.41-37.57 121.41-30.72L121.41-30.72L121.41-7.87L136.96-42.18L144.58-42.18L124.67 0L109.70 0L107.78-30.72L107.78-30.72Q107.58-34.11 106.66-36.42L106.66-36.42L106.66-36.42Q105.73-38.72 104.45-39.68ZM142.78-10.37L142.78-10.37L142.78-10.37Q140.74-11.84 140.74-14.66L140.74-14.66L140.74-14.66Q140.74-16.19 141.50-17.44L141.50-17.44L141.50-17.44Q142.27-18.69 143.81-18.88L143.81-18.88L156.42-18.88L156.42-18.88Q158.53-18.88 159.17-20.16L159.17-20.16L159.17-20.16Q160.19-19.58 160.64-18.37L160.64-18.37L160.64-18.37Q161.09-17.15 161.09-15.87L161.09-15.87L161.09-15.87Q161.09-14.59 160.10-13.34L160.10-13.34L160.10-13.34Q159.10-12.10 157.63-11.97L157.63-11.97L145.92-11.97L145.92-11.97Q144.58-11.97 143.94-11.55L143.94-11.55L143.94-11.55Q143.30-11.14 142.78-10.37ZM192.83-9.86L192.83-9.86L192.83-9.86Q194.05-8.32 194.05-5.82L194.05-5.82L194.05-5.82Q194.05-2.37 191.49-0.54L191.49-0.54L191.49-0.54Q188.93 1.28 184.90 1.28L184.90 1.28L184.90 1.28Q182.59 1.28 179.07 0.77L179.07 0.77L179.07 0.77Q172.16-0.32 170.05-0.32L170.05-0.32L170.05-0.32Q167.94-0.32 167.10-0.22L167.10-0.22L167.10-0.22Q166.27-0.13 164.93 0L164.93 0L172.80-42.24L200.38-42.24L200.38-42.24Q200.38-38.34 198.50-36.29L198.50-36.29L198.50-36.29Q196.61-34.24 192.90-34.24L192.90-34.24L192.90-34.24Q189.18-34.24 185.41-35.97L185.41-35.97L183.42-24.77L194.82-24.77L194.82-24.77Q194.82-21.38 193.15-19.49L193.15-19.49L193.15-19.49Q191.49-17.60 188.70-17.60L188.70-17.60L188.70-17.60Q185.92-17.60 184.19-18.24L184.19-18.24L184.19-18.24Q182.46-18.88 182.27-19.07L182.27-19.07L179.97-6.98L179.97-6.98Q181.50-6.78 184.38-6.78L184.38-6.78L184.38-6.78Q189.31-6.78 192.83-9.86Z" fill="#444"></path></g></g><style>text {
  font-size: 64px;
  font-family: Arial Black;
  dominant-baseline: central;
  text-anchor: middle;
}</style></svg>